<svg width="127" height="19" viewBox="0 0 127 19" fill="none" xmlns="http://www.w3.org/2000/svg">
<path d="M10.4141 12.3398H13.918C13.8477 13.4883 13.5312 14.5078 12.9688 15.3984C12.4141 16.2891 11.6367 16.9844 10.6367 17.4844C9.64453 17.9844 8.44922 18.2344 7.05078 18.2344C5.95703 18.2344 4.97656 18.0469 4.10938 17.6719C3.24219 17.2891 2.5 16.7422 1.88281 16.0312C1.27344 15.3203 0.808594 14.4609 0.488281 13.4531C0.167969 12.4453 0.0078125 11.3164 0.0078125 10.0664V8.88281C0.0078125 7.63281 0.171875 6.50391 0.5 5.49609C0.835938 4.48047 1.3125 3.61719 1.92969 2.90625C2.55469 2.19531 3.30078 1.64844 4.16797 1.26562C5.03516 0.882812 6.00391 0.691406 7.07422 0.691406C8.49609 0.691406 9.69531 0.949219 10.6719 1.46484C11.6562 1.98047 12.418 2.69141 12.957 3.59766C13.5039 4.50391 13.832 5.53516 13.9414 6.69141H10.4258C10.3867 6.00391 10.25 5.42188 10.0156 4.94531C9.78125 4.46094 9.42578 4.09766 8.94922 3.85547C8.48047 3.60547 7.85547 3.48047 7.07422 3.48047C6.48828 3.48047 5.97656 3.58984 5.53906 3.80859C5.10156 4.02734 4.73438 4.35938 4.4375 4.80469C4.14062 5.25 3.91797 5.8125 3.76953 6.49219C3.62891 7.16406 3.55859 7.95312 3.55859 8.85938V10.0664C3.55859 10.9492 3.625 11.7266 3.75781 12.3984C3.89062 13.0625 4.09375 13.625 4.36719 14.0859C4.64844 14.5391 5.00781 14.8828 5.44531 15.1172C5.89062 15.3438 6.42578 15.457 7.05078 15.457C7.78516 15.457 8.39062 15.3398 8.86719 15.1055C9.34375 14.8711 9.70703 14.5234 9.95703 14.0625C10.2148 13.6016 10.3672 13.0273 10.4141 12.3398ZM22.8594 15.1406V9.49219C22.8594 9.08594 22.793 8.73828 22.6602 8.44922C22.5273 8.15234 22.3203 7.92188 22.0391 7.75781C21.7656 7.59375 21.4102 7.51172 20.9727 7.51172C20.5977 7.51172 20.2734 7.57812 20 7.71094C19.7266 7.83594 19.5156 8.01953 19.3672 8.26172C19.2188 8.49609 19.1445 8.77344 19.1445 9.09375H15.7695C15.7695 8.55469 15.8945 8.04297 16.1445 7.55859C16.3945 7.07422 16.7578 6.64844 17.2344 6.28125C17.7109 5.90625 18.2773 5.61328 18.9336 5.40234C19.5977 5.19141 20.3398 5.08594 21.1602 5.08594C22.1445 5.08594 23.0195 5.25 23.7852 5.57812C24.5508 5.90625 25.1523 6.39844 25.5898 7.05469C26.0352 7.71094 26.2578 8.53125 26.2578 9.51562V14.9414C26.2578 15.6367 26.3008 16.207 26.3867 16.6523C26.4727 17.0898 26.5977 17.4727 26.7617 17.8008V18H23.3516C23.1875 17.6562 23.0625 17.2266 22.9766 16.7109C22.8984 16.1875 22.8594 15.6641 22.8594 15.1406ZM23.3047 10.2773L23.3281 12.1875H21.4414C20.9961 12.1875 20.6094 12.2383 20.2812 12.3398C19.9531 12.4414 19.6836 12.5859 19.4727 12.7734C19.2617 12.9531 19.1055 13.1641 19.0039 13.4062C18.9102 13.6484 18.8633 13.9141 18.8633 14.2031C18.8633 14.4922 18.9297 14.7539 19.0625 14.9883C19.1953 15.2148 19.3867 15.3945 19.6367 15.5273C19.8867 15.6523 20.1797 15.7148 20.5156 15.7148C21.0234 15.7148 21.4648 15.6133 21.8398 15.4102C22.2148 15.207 22.5039 14.957 22.707 14.6602C22.918 14.3633 23.0273 14.082 23.0352 13.8164L23.9258 15.2461C23.8008 15.5664 23.6289 15.8984 23.4102 16.2422C23.1992 16.5859 22.9297 16.9102 22.6016 17.2148C22.2734 17.5117 21.8789 17.7578 21.418 17.9531C20.957 18.1406 20.4102 18.2344 19.7773 18.2344C18.9727 18.2344 18.2422 18.0742 17.5859 17.7539C16.9375 17.4258 16.4219 16.9766 16.0391 16.4062C15.6641 15.8281 15.4766 15.1719 15.4766 14.4375C15.4766 13.7734 15.6016 13.1836 15.8516 12.668C16.1016 12.1523 16.4688 11.7188 16.9531 11.3672C17.4453 11.0078 18.0586 10.7383 18.793 10.5586C19.5273 10.3711 20.3789 10.2773 21.3477 10.2773H23.3047ZM32.2344 8.08594V18H28.8594V5.32031H32.0352L32.2344 8.08594ZM36.0547 5.23828L35.9961 8.36719C35.832 8.34375 35.6328 8.32422 35.3984 8.30859C35.1719 8.28516 34.9648 8.27344 34.7773 8.27344C34.3008 8.27344 33.8867 8.33594 33.5352 8.46094C33.1914 8.57812 32.9023 8.75391 32.668 8.98828C32.4414 9.22266 32.2695 9.50781 32.1523 9.84375C32.043 10.1797 31.9805 10.5625 31.9648 10.9922L31.2852 10.7812C31.2852 9.96094 31.3672 9.20703 31.5312 8.51953C31.6953 7.82422 31.9336 7.21875 32.2461 6.70312C32.5664 6.1875 32.957 5.78906 33.418 5.50781C33.8789 5.22656 34.4062 5.08594 35 5.08594C35.1875 5.08594 35.3789 5.10156 35.5742 5.13281C35.7695 5.15625 35.9297 5.19141 36.0547 5.23828ZM43.25 18.2344C42.2656 18.2344 41.3828 18.0781 40.6016 17.7656C39.8203 17.4453 39.1562 17.0039 38.6094 16.4414C38.0703 15.8789 37.6562 15.2266 37.3672 14.4844C37.0781 13.7344 36.9336 12.9375 36.9336 12.0938V11.625C36.9336 10.6641 37.0703 9.78516 37.3438 8.98828C37.6172 8.19141 38.0078 7.5 38.5156 6.91406C39.0312 6.32812 39.6562 5.87891 40.3906 5.56641C41.125 5.24609 41.9531 5.08594 42.875 5.08594C43.7734 5.08594 44.5703 5.23438 45.2656 5.53125C45.9609 5.82812 46.543 6.25 47.0117 6.79688C47.4883 7.34375 47.8477 8 48.0898 8.76562C48.332 9.52344 48.4531 10.3672 48.4531 11.2969V12.7031H38.375V10.4531H45.1367V10.1953C45.1367 9.72656 45.0508 9.30859 44.8789 8.94141C44.7148 8.56641 44.4648 8.26953 44.1289 8.05078C43.793 7.83203 43.3633 7.72266 42.8398 7.72266C42.3945 7.72266 42.0117 7.82031 41.6914 8.01562C41.3711 8.21094 41.1094 8.48438 40.9062 8.83594C40.7109 9.1875 40.5625 9.60156 40.4609 10.0781C40.3672 10.5469 40.3203 11.0625 40.3203 11.625V12.0938C40.3203 12.6016 40.3906 13.0703 40.5312 13.5C40.6797 13.9297 40.8867 14.3008 41.1523 14.6133C41.4258 14.9258 41.7539 15.168 42.1367 15.3398C42.5273 15.5117 42.9688 15.5977 43.4609 15.5977C44.0703 15.5977 44.6367 15.4805 45.1602 15.2461C45.6914 15.0039 46.1484 14.6406 46.5312 14.1562L48.1719 15.9375C47.9062 16.3203 47.543 16.6875 47.082 17.0391C46.6289 17.3906 46.082 17.6797 45.4414 17.9062C44.8008 18.125 44.0703 18.2344 43.25 18.2344ZM52.6367 0V1.78125C52.6367 2.28906 52.5391 2.8125 52.3438 3.35156C52.1562 3.89062 51.9023 4.40234 51.582 4.88672C51.2617 5.36328 50.9102 5.76953 50.5273 6.10547L48.9453 5.19141C49.2344 4.73047 49.4805 4.23047 49.6836 3.69141C49.8867 3.14453 49.9883 2.51172 49.9883 1.79297V0H52.6367Z" fill="#333232"/>
<path d="M58.4375 7.94531V18H55.0508V5.32031H58.2266L58.4375 7.94531ZM57.9688 11.2148H57.0312C57.0312 10.332 57.1367 9.51953 57.3477 8.77734C57.5664 8.02734 57.8828 7.37891 58.2969 6.83203C58.7188 6.27734 59.2383 5.84766 59.8555 5.54297C60.4727 5.23828 61.1875 5.08594 62 5.08594C62.5625 5.08594 63.0781 5.17188 63.5469 5.34375C64.0156 5.50781 64.418 5.76953 64.7539 6.12891C65.0977 6.48047 65.3633 6.94141 65.5508 7.51172C65.7383 8.07422 65.832 8.75 65.832 9.53906V18H62.457V9.91406C62.457 9.33594 62.3789 8.89062 62.2227 8.57812C62.0664 8.26562 61.8438 8.04688 61.5547 7.92188C61.2734 7.79688 60.9336 7.73438 60.5352 7.73438C60.0977 7.73438 59.7148 7.82422 59.3867 8.00391C59.0664 8.18359 58.8008 8.43359 58.5898 8.75391C58.3789 9.06641 58.2227 9.43359 58.1211 9.85547C58.0195 10.2773 57.9688 10.7305 57.9688 11.2148ZM65.5156 10.8281L64.3086 10.9805C64.3086 10.1523 64.4102 9.38281 64.6133 8.67188C64.8242 7.96094 65.1328 7.33594 65.5391 6.79688C65.9531 6.25781 66.4648 5.83984 67.0742 5.54297C67.6836 5.23828 68.3867 5.08594 69.1836 5.08594C69.793 5.08594 70.3477 5.17578 70.8477 5.35547C71.3477 5.52734 71.7734 5.80469 72.125 6.1875C72.4844 6.5625 72.7578 7.05469 72.9453 7.66406C73.1406 8.27344 73.2383 9.01953 73.2383 9.90234V18H69.8516V9.90234C69.8516 9.31641 69.7734 8.87109 69.6172 8.56641C69.4688 8.25391 69.25 8.03906 68.9609 7.92188C68.6797 7.79688 68.3438 7.73438 67.9531 7.73438C67.5469 7.73438 67.1914 7.81641 66.8867 7.98047C66.582 8.13672 66.3281 8.35547 66.125 8.63672C65.9219 8.91797 65.7695 9.24609 65.668 9.62109C65.5664 9.98828 65.5156 10.3906 65.5156 10.8281ZM81.6875 18.2344C80.7031 18.2344 79.8203 18.0781 79.0391 17.7656C78.2578 17.4453 77.5938 17.0039 77.0469 16.4414C76.5078 15.8789 76.0938 15.2266 75.8047 14.4844C75.5156 13.7344 75.3711 12.9375 75.3711 12.0938V11.625C75.3711 10.6641 75.5078 9.78516 75.7812 8.98828C76.0547 8.19141 76.4453 7.5 76.9531 6.91406C77.4688 6.32812 78.0938 5.87891 78.8281 5.56641C79.5625 5.24609 80.3906 5.08594 81.3125 5.08594C82.2109 5.08594 83.0078 5.23438 83.7031 5.53125C84.3984 5.82812 84.9805 6.25 85.4492 6.79688C85.9258 7.34375 86.2852 8 86.5273 8.76562C86.7695 9.52344 86.8906 10.3672 86.8906 11.2969V12.7031H76.8125V10.4531H83.5742V10.1953C83.5742 9.72656 83.4883 9.30859 83.3164 8.94141C83.1523 8.56641 82.9023 8.26953 82.5664 8.05078C82.2305 7.83203 81.8008 7.72266 81.2773 7.72266C80.832 7.72266 80.4492 7.82031 80.1289 8.01562C79.8086 8.21094 79.5469 8.48438 79.3438 8.83594C79.1484 9.1875 79 9.60156 78.8984 10.0781C78.8047 10.5469 78.7578 11.0625 78.7578 11.625V12.0938C78.7578 12.6016 78.8281 13.0703 78.9688 13.5C79.1172 13.9297 79.3242 14.3008 79.5898 14.6133C79.8633 14.9258 80.1914 15.168 80.5742 15.3398C80.9648 15.5117 81.4062 15.5977 81.8984 15.5977C82.5078 15.5977 83.0742 15.4805 83.5977 15.2461C84.1289 15.0039 84.5859 14.6406 84.9688 14.1562L86.6094 15.9375C86.3438 16.3203 85.9805 16.6875 85.5195 17.0391C85.0664 17.3906 84.5195 17.6797 83.8789 17.9062C83.2383 18.125 82.5078 18.2344 81.6875 18.2344ZM92.1172 8.02734V18H88.7422V5.32031H91.9062L92.1172 8.02734ZM91.625 11.2148H90.7109C90.7109 10.2773 90.832 9.43359 91.0742 8.68359C91.3164 7.92578 91.6562 7.28125 92.0938 6.75C92.5312 6.21094 93.0508 5.80078 93.6523 5.51953C94.2617 5.23047 94.9414 5.08594 95.6914 5.08594C96.2852 5.08594 96.8281 5.17188 97.3203 5.34375C97.8125 5.51562 98.2344 5.78906 98.5859 6.16406C98.9453 6.53906 99.2188 7.03516 99.4062 7.65234C99.6016 8.26953 99.6992 9.02344 99.6992 9.91406V18H96.3008V9.90234C96.3008 9.33984 96.2227 8.90234 96.0664 8.58984C95.9102 8.27734 95.6797 8.05859 95.375 7.93359C95.0781 7.80078 94.7109 7.73438 94.2734 7.73438C93.8203 7.73438 93.4258 7.82422 93.0898 8.00391C92.7617 8.18359 92.4883 8.43359 92.2695 8.75391C92.0586 9.06641 91.8984 9.43359 91.7891 9.85547C91.6797 10.2773 91.625 10.7305 91.625 11.2148ZM108.477 5.32031V7.71094H101.094V5.32031H108.477ZM102.922 2.19141H106.297V14.1797C106.297 14.5469 106.344 14.8281 106.438 15.0234C106.539 15.2188 106.688 15.3555 106.883 15.4336C107.078 15.5039 107.324 15.5391 107.621 15.5391C107.832 15.5391 108.02 15.5312 108.184 15.5156C108.355 15.4922 108.5 15.4688 108.617 15.4453L108.629 17.9297C108.34 18.0234 108.027 18.0977 107.691 18.1523C107.355 18.207 106.984 18.2344 106.578 18.2344C105.836 18.2344 105.188 18.1133 104.633 17.8711C104.086 17.6211 103.664 17.2227 103.367 16.6758C103.07 16.1289 102.922 15.4102 102.922 14.5195V2.19141ZM117.242 15.1406V9.49219C117.242 9.08594 117.176 8.73828 117.043 8.44922C116.91 8.15234 116.703 7.92188 116.422 7.75781C116.148 7.59375 115.793 7.51172 115.355 7.51172C114.98 7.51172 114.656 7.57812 114.383 7.71094C114.109 7.83594 113.898 8.01953 113.75 8.26172C113.602 8.49609 113.527 8.77344 113.527 9.09375H110.152C110.152 8.55469 110.277 8.04297 110.527 7.55859C110.777 7.07422 111.141 6.64844 111.617 6.28125C112.094 5.90625 112.66 5.61328 113.316 5.40234C113.98 5.19141 114.723 5.08594 115.543 5.08594C116.527 5.08594 117.402 5.25 118.168 5.57812C118.934 5.90625 119.535 6.39844 119.973 7.05469C120.418 7.71094 120.641 8.53125 120.641 9.51562V14.9414C120.641 15.6367 120.684 16.207 120.77 16.6523C120.855 17.0898 120.98 17.4727 121.145 17.8008V18H117.734C117.57 17.6562 117.445 17.2266 117.359 16.7109C117.281 16.1875 117.242 15.6641 117.242 15.1406ZM117.688 10.2773L117.711 12.1875H115.824C115.379 12.1875 114.992 12.2383 114.664 12.3398C114.336 12.4414 114.066 12.5859 113.855 12.7734C113.645 12.9531 113.488 13.1641 113.387 13.4062C113.293 13.6484 113.246 13.9141 113.246 14.2031C113.246 14.4922 113.312 14.7539 113.445 14.9883C113.578 15.2148 113.77 15.3945 114.02 15.5273C114.27 15.6523 114.562 15.7148 114.898 15.7148C115.406 15.7148 115.848 15.6133 116.223 15.4102C116.598 15.207 116.887 14.957 117.09 14.6602C117.301 14.3633 117.41 14.082 117.418 13.8164L118.309 15.2461C118.184 15.5664 118.012 15.8984 117.793 16.2422C117.582 16.5859 117.312 16.9102 116.984 17.2148C116.656 17.5117 116.262 17.7578 115.801 17.9531C115.34 18.1406 114.793 18.2344 114.16 18.2344C113.355 18.2344 112.625 18.0742 111.969 17.7539C111.32 17.4258 110.805 16.9766 110.422 16.4062C110.047 15.8281 109.859 15.1719 109.859 14.4375C109.859 13.7734 109.984 13.1836 110.234 12.668C110.484 12.1523 110.852 11.7188 111.336 11.3672C111.828 11.0078 112.441 10.7383 113.176 10.5586C113.91 10.3711 114.762 10.2773 115.73 10.2773H117.688ZM126.805 0V18H123.418V0H126.805Z" fill="#959494"/>
</svg>
