<svg width="127" height="19" viewBox="0 0 127 19" fill="none" xmlns="http://www.w3.org/2000/svg">
<path d="M13.918 12.3164C13.7852 14.1523 13.1055 15.5977 11.8789 16.6523C10.6602 17.707 9.05078 18.2344 7.05078 18.2344C4.86328 18.2344 3.14062 17.5 1.88281 16.0312C0.632812 14.5547 0.0078125 12.5312 0.0078125 9.96094V8.91797C0.0078125 7.27734 0.296875 5.83203 0.875 4.58203C1.45312 3.33203 2.27734 2.375 3.34766 1.71094C4.42578 1.03906 5.67578 0.703125 7.09766 0.703125C9.06641 0.703125 10.6523 1.23047 11.8555 2.28516C13.0586 3.33984 13.7539 4.82031 13.9414 6.72656H10.4258C10.3398 5.625 10.0312 4.82812 9.5 4.33594C8.97656 3.83594 8.17578 3.58594 7.09766 3.58594C5.92578 3.58594 5.04688 4.00781 4.46094 4.85156C3.88281 5.6875 3.58594 6.98828 3.57031 8.75391V10.043C3.57031 11.8867 3.84766 13.2344 4.40234 14.0859C4.96484 14.9375 5.84766 15.3633 7.05078 15.3633C8.13672 15.3633 8.94531 15.1172 9.47656 14.625C10.0156 14.125 10.3242 13.3555 10.4023 12.3164H13.918ZM23.3516 18C23.1953 17.6953 23.082 17.3164 23.0117 16.8633C22.1914 17.7773 21.125 18.2344 19.8125 18.2344C18.5703 18.2344 17.5391 17.875 16.7188 17.1562C15.9062 16.4375 15.5 15.5312 15.5 14.4375C15.5 13.0938 15.9961 12.0625 16.9883 11.3438C17.9883 10.625 19.4297 10.2617 21.3125 10.2539H22.8711V9.52734C22.8711 8.94141 22.7188 8.47266 22.4141 8.12109C22.1172 7.76953 21.6445 7.59375 20.9961 7.59375C20.4258 7.59375 19.9766 7.73047 19.6484 8.00391C19.3281 8.27734 19.168 8.65234 19.168 9.12891H15.7812C15.7812 8.39453 16.0078 7.71484 16.4609 7.08984C16.9141 6.46484 17.5547 5.97656 18.3828 5.625C19.2109 5.26562 20.1406 5.08594 21.1719 5.08594C22.7344 5.08594 23.9727 5.48047 24.8867 6.26953C25.8086 7.05078 26.2695 8.15234 26.2695 9.57422V15.0703C26.2773 16.2734 26.4453 17.1836 26.7734 17.8008V18H23.3516ZM20.5508 15.6445C21.0508 15.6445 21.5117 15.5352 21.9336 15.3164C22.3555 15.0898 22.668 14.7891 22.8711 14.4141V12.2344H21.6055C19.9102 12.2344 19.0078 12.8203 18.8984 13.9922L18.8867 14.1914C18.8867 14.6133 19.0352 14.9609 19.332 15.2344C19.6289 15.5078 20.0352 15.6445 20.5508 15.6445ZM35.9961 8.49609C35.5352 8.43359 35.1289 8.40234 34.7773 8.40234C33.4961 8.40234 32.6562 8.83594 32.2578 9.70312V18H28.8711V5.32031H32.0703L32.1641 6.83203C32.8438 5.66797 33.7852 5.08594 34.9883 5.08594C35.3633 5.08594 35.7148 5.13672 36.043 5.23828L35.9961 8.49609ZM43.2383 18.2344C41.3789 18.2344 39.8633 17.6641 38.6914 16.5234C37.5273 15.3828 36.9453 13.8633 36.9453 11.9648V11.6367C36.9453 10.3633 37.1914 9.22656 37.6836 8.22656C38.1758 7.21875 38.8711 6.44531 39.7695 5.90625C40.6758 5.35938 41.707 5.08594 42.8633 5.08594C44.5977 5.08594 45.9609 5.63281 46.9531 6.72656C47.9531 7.82031 48.4531 9.37109 48.4531 11.3789V12.7617H40.3789C40.4883 13.5898 40.8164 14.2539 41.3633 14.7539C41.918 15.2539 42.6172 15.5039 43.4609 15.5039C44.7656 15.5039 45.7852 15.0312 46.5195 14.0859L48.1836 15.9492C47.6758 16.668 46.9883 17.2305 46.1211 17.6367C45.2539 18.0352 44.293 18.2344 43.2383 18.2344ZM42.8516 7.82812C42.1797 7.82812 41.6328 8.05469 41.2109 8.50781C40.7969 8.96094 40.5312 9.60938 40.4141 10.4531H45.125V10.1836C45.1094 9.43359 44.9062 8.85547 44.5156 8.44922C44.125 8.03516 43.5703 7.82812 42.8516 7.82812ZM50.6094 6.17578L49.0156 5.25C49.6875 4.19531 50.0352 3.10547 50.0586 1.98047V0H52.7539V1.81641C52.7539 2.51953 52.5586 3.28125 52.168 4.10156C51.7773 4.92188 51.2578 5.61328 50.6094 6.17578Z" fill="#333232"/>
<path d="M58.3203 5.32031L58.4258 6.73828C59.3242 5.63672 60.5391 5.08594 62.0703 5.08594C63.7031 5.08594 64.8242 5.73047 65.4336 7.01953C66.3242 5.73047 67.5938 5.08594 69.2422 5.08594C70.6172 5.08594 71.6406 5.48828 72.3125 6.29297C72.9844 7.08984 73.3203 8.29297 73.3203 9.90234V18H69.9219V9.91406C69.9219 9.19531 69.7812 8.67188 69.5 8.34375C69.2188 8.00781 68.7227 7.83984 68.0117 7.83984C66.9961 7.83984 66.293 8.32422 65.9023 9.29297L65.9141 18H62.5273V9.92578C62.5273 9.19141 62.3828 8.66016 62.0938 8.33203C61.8047 8.00391 61.3125 7.83984 60.6172 7.83984C59.6562 7.83984 58.9609 8.23828 58.5312 9.03516V18H55.1445V5.32031H58.3203ZM81.7695 18.2344C79.9102 18.2344 78.3945 17.6641 77.2227 16.5234C76.0586 15.3828 75.4766 13.8633 75.4766 11.9648V11.6367C75.4766 10.3633 75.7227 9.22656 76.2148 8.22656C76.707 7.21875 77.4023 6.44531 78.3008 5.90625C79.207 5.35938 80.2383 5.08594 81.3945 5.08594C83.1289 5.08594 84.4922 5.63281 85.4844 6.72656C86.4844 7.82031 86.9844 9.37109 86.9844 11.3789V12.7617H78.9102C79.0195 13.5898 79.3477 14.2539 79.8945 14.7539C80.4492 15.2539 81.1484 15.5039 81.9922 15.5039C83.2969 15.5039 84.3164 15.0312 85.0508 14.0859L86.7148 15.9492C86.207 16.668 85.5195 17.2305 84.6523 17.6367C83.7852 18.0352 82.8242 18.2344 81.7695 18.2344ZM81.3828 7.82812C80.7109 7.82812 80.1641 8.05469 79.7422 8.50781C79.3281 8.96094 79.0625 9.60938 78.9453 10.4531H83.6562V10.1836C83.6406 9.43359 83.4375 8.85547 83.0469 8.44922C82.6562 8.03516 82.1016 7.82812 81.3828 7.82812ZM92.0352 5.32031L92.1406 6.78516C93.0469 5.65234 94.2617 5.08594 95.7852 5.08594C97.1289 5.08594 98.1289 5.48047 98.7852 6.26953C99.4414 7.05859 99.7773 8.23828 99.793 9.80859V18H96.4062V9.89062C96.4062 9.17188 96.25 8.65234 95.9375 8.33203C95.625 8.00391 95.1055 7.83984 94.3789 7.83984C93.4258 7.83984 92.7109 8.24609 92.2344 9.05859V18H88.8477V5.32031H92.0352ZM106.426 2.20312V5.32031H108.594V7.80469H106.426V14.1328C106.426 14.6016 106.516 14.9375 106.695 15.1406C106.875 15.3438 107.219 15.4453 107.727 15.4453C108.102 15.4453 108.434 15.418 108.723 15.3633V17.9297C108.059 18.1328 107.375 18.2344 106.672 18.2344C104.297 18.2344 103.086 17.0352 103.039 14.6367V7.80469H101.188V5.32031H103.039V2.20312H106.426ZM117.828 18C117.672 17.6953 117.559 17.3164 117.488 16.8633C116.668 17.7773 115.602 18.2344 114.289 18.2344C113.047 18.2344 112.016 17.875 111.195 17.1562C110.383 16.4375 109.977 15.5312 109.977 14.4375C109.977 13.0938 110.473 12.0625 111.465 11.3438C112.465 10.625 113.906 10.2617 115.789 10.2539H117.348V9.52734C117.348 8.94141 117.195 8.47266 116.891 8.12109C116.594 7.76953 116.121 7.59375 115.473 7.59375C114.902 7.59375 114.453 7.73047 114.125 8.00391C113.805 8.27734 113.645 8.65234 113.645 9.12891H110.258C110.258 8.39453 110.484 7.71484 110.938 7.08984C111.391 6.46484 112.031 5.97656 112.859 5.625C113.688 5.26562 114.617 5.08594 115.648 5.08594C117.211 5.08594 118.449 5.48047 119.363 6.26953C120.285 7.05078 120.746 8.15234 120.746 9.57422V15.0703C120.754 16.2734 120.922 17.1836 121.25 17.8008V18H117.828ZM115.027 15.6445C115.527 15.6445 115.988 15.5352 116.41 15.3164C116.832 15.0898 117.145 14.7891 117.348 14.4141V12.2344H116.082C114.387 12.2344 113.484 12.8203 113.375 13.9922L113.363 14.1914C113.363 14.6133 113.512 14.9609 113.809 15.2344C114.105 15.5078 114.512 15.6445 115.027 15.6445ZM126.922 18H123.523V0H126.922V18Z" fill="white"/>
</svg>
