<svg width="24" height="20" viewBox="0 0 24 20" fill="none" xmlns="http://www.w3.org/2000/svg">
<path d="M7.55016 19.7501C16.6045 19.7501 21.5583 12.2468 21.5583 5.74198C21.5583 5.53105 21.5536 5.31542 21.5442 5.10448C22.5079 4.40758 23.3395 3.54438 24 2.55542C23.1025 2.95472 22.1496 3.2155 21.1739 3.32886C22.2013 2.71303 22.9705 1.74559 23.3391 0.605889C22.3726 1.17868 21.3156 1.58273 20.2134 1.80073C19.4708 1.01168 18.489 0.489238 17.4197 0.314173C16.3504 0.139108 15.2532 0.321172 14.2977 0.832219C13.3423 1.34326 12.5818 2.15483 12.1338 3.14143C11.6859 4.12804 11.5754 5.23474 11.8195 6.29042C9.86249 6.19221 7.94794 5.68383 6.19998 4.79822C4.45203 3.91261 2.90969 2.66956 1.67297 1.14964C1.0444 2.23337 0.852057 3.51577 1.13503 4.73621C1.418 5.95666 2.15506 7.02357 3.19641 7.72011C2.41463 7.69529 1.64998 7.4848 0.965625 7.10604V7.16698C0.964925 8.30427 1.3581 9.40671 2.07831 10.2869C2.79852 11.1671 3.80132 11.7707 4.91625 11.9951C4.19206 12.1933 3.43198 12.2221 2.69484 12.0795C3.00945 13.0576 3.62157 13.913 4.44577 14.5265C5.26997 15.1399 6.26512 15.4807 7.29234 15.5014C5.54842 16.8712 3.39417 17.6142 1.17656 17.6107C0.783287 17.6101 0.390399 17.586 0 17.5385C2.25286 18.9839 4.87353 19.7515 7.55016 19.7501Z" fill="white"/>
</svg>
